<svg xmlns="http://www.w3.org/2000/svg" viewBox="0 0 92.74 92.74"><defs><style>.cls-1,.cls-2{fill:#010101;}.cls-2{fill-rule:evenodd;}</style></defs><g id="Camada_2" data-name="Camada 2"><g id="Layer_1" data-name="Layer 1"><path class="cls-1" d="M46.37,92.74A46.37,46.37,0,1,1,92.74,46.37,46.42,46.42,0,0,1,46.37,92.74ZM46.37,5A41.39,41.39,0,1,0,87.76,46.37,41.44,41.44,0,0,0,46.37,5Z"/><path class="cls-2" d="M39.1,46.59V73.46a.7.7,0,0,0,.7.7h10a.7.7,0,0,0,.7-.7V46.15h7.23a.7.7,0,0,0,.7-.64l.7-8.23a.7.7,0,0,0-.7-.76H50.48V30.68A2.47,2.47,0,0,1,53,28.21h5.57a.7.7,0,0,0,.7-.7V19.28a.7.7,0,0,0-.7-.7H49.11a10,10,0,0,0-10,10v7.93h-5a.7.7,0,0,0-.7.7v8.23a.7.7,0,0,0,.7.7h5Z"/></g></g></svg>