<svg xmlns="http://www.w3.org/2000/svg" viewBox="0 0 92.14 92.14"><defs><style>.cls-1{fill:#010101;}</style></defs><g id="Camada_2" data-name="Camada 2"><g id="Layer_1" data-name="Layer 1"><path class="cls-1" d="M46.07,92.14A46.07,46.07,0,1,1,92.14,46.07,46.13,46.13,0,0,1,46.07,92.14Zm0-87.76A41.69,41.69,0,1,0,87.76,46.07,41.73,41.73,0,0,0,46.07,4.38Zm15.53,23A3.41,3.41,0,1,0,65,30.79,3.41,3.41,0,0,0,61.6,27.38ZM46.45,31.75A14.32,14.32,0,1,0,60.77,46.07,14.33,14.33,0,0,0,46.45,31.75Zm0,23.49a9.17,9.17,0,1,1,9.17-9.17A9.18,9.18,0,0,1,46.45,55.24ZM75.34,34.17A17.47,17.47,0,0,0,57.87,16.7h-23A17.47,17.47,0,0,0,17.36,34.17v23A17.47,17.47,0,0,0,34.82,74.69h23A17.47,17.47,0,0,0,75.34,57.22Zm-5.47,23a12,12,0,0,1-12,12h-23a12,12,0,0,1-12-12v-23a12,12,0,0,1,12-12h23a12,12,0,0,1,12,12Z"/></g></g></svg>