<svg xmlns="http://www.w3.org/2000/svg" viewBox="0 0 93.3 93.3"><defs><style>.cls-1{fill:#010101;}</style></defs><g id="Camada_2" data-name="Camada 2"><g id="Layer_1" data-name="Layer 1"><path class="cls-1" d="M46.65,93.3A46.65,46.65,0,1,1,93.3,46.65,46.71,46.71,0,0,1,46.65,93.3ZM46.65,5A41.64,41.64,0,1,0,88.29,46.65,41.69,41.69,0,0,0,46.65,5Z"/><path class="cls-1" d="M74.58,39.57a12,12,0,0,0-12-12H31.53a12,12,0,0,0-12,12V54.14a12,12,0,0,0,12,12H62.6a12,12,0,0,0,12-12Zm-19.6,8-12.4,6.8c-.53.29-1-.1-1-.72v-14c0-.62.5-1,1-.7l12.48,7.16A.81.81,0,0,1,55,47.59Z"/></g></g></svg>