<svg xmlns="http://www.w3.org/2000/svg" viewBox="0 0 321.11 160.67"><defs><style>.cls-1{fill:#010101;}.cls-2{fill:#fff;}.cls-3{fill:#f2ea36;}</style></defs><g id="Camada_2" data-name="Camada 2"><g id="Layer_1" data-name="Layer 1"><rect class="cls-1" width="321.11" height="160.67"/><path class="cls-2" d="M131.42,40.74h-7.93V34.61c0-.67-.32-1-1-1H119c-.63,0-1,.33-1,1V55.93c0,.66.32,1,1,1h3.52a.87.87,0,0,0,1-1V49.8h7.93v8a6.7,6.7,0,0,1-1.56,4.88q-1.56,1.53-6.16,1.56h-6.39q-4.59,0-6.15-1.56a6.7,6.7,0,0,1-1.56-4.88v-25a6.7,6.7,0,0,1,1.56-4.88c1-1,3.09-1.54,6.15-1.56h6.39c3.07,0,5.12.53,6.16,1.56a6.7,6.7,0,0,1,1.56,4.88Z"/><path class="cls-2" d="M156.7,26.32v7.29H146.18v8h9V48.9h-9v8H156.7v7.29h-19V56.93h0V26.32Z"/><path class="cls-2" d="M170.38,43.09V64.22h-7.93V26.32h8.46l7.55,21.92V26.32h7.93v37.9h-8.46Z"/><path class="cls-2" d="M206.62,33.61V64.22h-8.45V33.61h-6.95V26.32h22.34v7.29Z"/><path class="cls-2" d="M225.9,51V64.22h-8.45V26.32h14.37c3.06,0,5.11.53,6.15,1.56a6.7,6.7,0,0,1,1.56,4.88v9.17a5.23,5.23,0,0,1-2.88,4.89c-.49.2-.75.4-.76.58s.27.34.76.55a5.18,5.18,0,0,1,3.15,4.89V64.22h-8.46V52.05a.88.88,0,0,0-1-1Zm0-17.43V43.72h4.46a.87.87,0,0,0,1-1V34.61a.87.87,0,0,0-1-1Z"/><path class="cls-2" d="M251.37,26.32h13.44l6.87,37.9h-8.46L262,57.06h-7.79L253,64.22H244.5Zm6.73,6.44-2.62,17h5.21Z"/><path class="cls-2" d="M276.17,26.32h8.45V56.93h9.56v7.29h-18Z"/><path class="cls-2" d="M109.6,107.09V89.2h6.9a4.31,4.31,0,0,1,2.91.73,3.19,3.19,0,0,1,.73,2.31v11.81a3.19,3.19,0,0,1-.73,2.31,4.31,4.31,0,0,1-2.91.73Zm4-3.44h2.1a.41.41,0,0,0,.46-.47V93.11a.41.41,0,0,0-.46-.47h-2.1Z"/><path class="cls-2" d="M131.94,89.2v3.44h-5v3.77h4.26v3.45H127v3.79h5v3.44h-9v-3.44h0V89.2Z"/><path class="cls-2" d="M131.94,69.18h8.45l5.15,31.65,5.13-31.65h8.45l-6.87,37.91H138.81Z"/><path class="cls-2" d="M181.5,69.18v7.28H171v8h9v7.29h-9v8H181.5v7.3h-19v-7.3h0V69.18Z"/><path class="cls-2" d="M194.1,86v21.14h-7.93V69.18h8.45l7.56,21.92V69.18h7.92v37.91h-8.45Z"/><path class="cls-2" d="M216.44,107.09V69.18h14.64q4.59,0,6.15,1.55a6.74,6.74,0,0,1,1.56,4.89v25a6.72,6.72,0,0,1-1.56,4.89q-1.56,1.53-6.15,1.56Zm8.46-7.3h4.46a.88.88,0,0,0,1-1V77.47a.88.88,0,0,0-1-1H224.9Z"/><path class="cls-2" d="M248.59,69.18H262l6.86,37.91h-8.45l-1.24-7.16h-7.79l-1.24,7.16h-8.46Zm6.74,6.44-2.62,17h5.21Z"/><path class="cls-2" d="M273.66,87c-1-1.06-1.56-2.77-1.56-5.15V75.62a6.74,6.74,0,0,1,1.56-4.89q1.56-1.53,6.15-1.55h6.4q4.59,0,6.15,1.55a6.74,6.74,0,0,1,1.56,4.89v6.13H286V77.47c0-.67-.32-1-1-1h-3.78c-.64,0-.95.34-.95,1v3.62c0,.84,1.79,2.19,5.39,4s5.91,3.3,6.94,4.32,1.56,2.77,1.56,5.15v6a6.72,6.72,0,0,1-1.56,4.89c-1,1-3.09,1.54-6.15,1.56h-6.92q-4.6,0-6.16-1.56a6.77,6.77,0,0,1-1.55-4.89V94.51H280v4.28a.88.88,0,0,0,1,1h3.78c.63,0,1-.33,1-1V95.14q0-1-5.26-3.79A33.79,33.79,0,0,1,273.66,87Z"/><path class="cls-3" d="M67,28.07a5.74,5.74,0,0,0-8.26,0L30.25,57.4a16.86,16.86,0,0,0-4.13,10.17v36.49c0,3.25,1.86,4,4.13,1.67L58.78,76.39a5.74,5.74,0,0,1,8.26,0l28.52,29.34c2.27,2.34,4.13,1.58,4.13-1.67V67.57A16.86,16.86,0,0,0,95.56,57.4Z"/><path class="cls-3" d="M78.88,107.09,65.73,93.56a3.91,3.91,0,0,0-5.64,0L46.94,107.09Z"/><path class="cls-2" d="M222.13,145.64v.61h-.47v-.64c0-.79-.3-1.39-1.11-1.39s-1.11.6-1.11,1.39v3.81c0,.79.3,1.38,1.11,1.38s1.11-.59,1.11-1.38v-.87h.47v.84c0,1.07-.47,1.86-1.59,1.86s-1.58-.79-1.58-1.86v-3.75c0-1.06.46-1.86,1.58-1.86S222.13,144.58,222.13,145.64Z"/><path class="cls-2" d="M227.4,143.84c1.12,0,1.57.62,1.57,1.66v.64a1.34,1.34,0,0,1-1.06,1.52,1.33,1.33,0,0,1,1.06,1.5v1.15a1.62,1.62,0,0,0,.18.88h-.5a1.67,1.67,0,0,1-.16-.88v-1.16c0-1-.54-1.25-1.38-1.25h-.77v3.29h-.48v-7.35Zm-.28,3.62c.86,0,1.37-.24,1.37-1.23v-.69c0-.79-.31-1.26-1.1-1.26h-1v3.18Z"/><path class="cls-2" d="M235.35,147.24v.44h-2v3.07h2.42v.44h-2.9v-7.35h2.9v.44h-2.42v3Z"/><path class="cls-2" d="M242.62,145.64v.61h-.46v-.64c0-.79-.3-1.39-1.11-1.39s-1.11.6-1.11,1.39v3.81c0,.79.3,1.38,1.11,1.38s1.11-.59,1.11-1.38v-.87h.46v.84c0,1.07-.46,1.86-1.58,1.86s-1.59-.79-1.59-1.86v-3.75c0-1.06.46-1.86,1.59-1.86S242.62,144.58,242.62,145.64Z"/><path class="cls-2" d="M246.83,143.84v7.35h-.48v-7.35Z"/><path class="cls-2" d="M251.09,146.27v.92h-.48v-.92Zm0,4v.92h-.48v-.92Z"/><path class="cls-2" d="M262.72,145.56v.23a1.42,1.42,0,0,1-1,1.55,1.43,1.43,0,0,1,1,1.57v.53a1.68,1.68,0,1,1-3.34,0v-.53a1.43,1.43,0,0,1,1-1.57,1.4,1.4,0,0,1-1-1.55v-.23a1.67,1.67,0,1,1,3.34,0Zm-2.85,0v.31c0,.83.41,1.26,1.18,1.26s1.19-.43,1.19-1.26v-.31c0-.86-.41-1.35-1.19-1.35S259.87,144.71,259.87,145.57Zm0,3.3v.55c0,.86.39,1.39,1.18,1.39s1.18-.53,1.19-1.39v-.55c0-.86-.39-1.29-1.19-1.29S259.87,148,259.87,148.87Z"/><path class="cls-2" d="M269.34,149.56v1.63h-.48v-1.63h-2.5v-.45l2.43-5.28h.55v5.29H270v.44Zm-2.54-.44h2.06v-4.39Z"/><path class="cls-2" d="M276.29,144.28h-2.7v-.45h3.19v.44l-2.06,6.92h-.5Z"/><path class="cls-2" d="M283.73,145.64v3.73c0,1.1-.48,1.88-1.62,1.88s-1.61-.76-1.61-1.84v-.09H281v.12c0,.79.33,1.37,1.14,1.37s1.14-.59,1.14-1.46v-1.8a1.25,1.25,0,0,1-1.3.77c-1,0-1.45-.75-1.45-1.79v-.89c0-1.09.49-1.87,1.62-1.87S283.73,144.55,283.73,145.64Zm-2.76,0v.89c0,.79.33,1.38,1.14,1.38s1.13-.59,1.13-1.38v-.89c0-.8-.32-1.39-1.13-1.39S281,144.81,281,145.61Z"/><path class="cls-2" d="M287.46,147.29h1.93v.45h-1.93Z"/><path class="cls-2" d="M293,150.75a3.05,3.05,0,0,0,.43,0c.69-.06,1-.42,1-1.33v-5.57H295v5.54c0,1.29-.58,1.77-1.47,1.81H293Z"/><path class="cls-2" d="M26.57,129.41a1.8,1.8,0,0,1-.38-1.27v-1.55a1.68,1.68,0,0,1,.38-1.2,2.3,2.3,0,0,1,1.52-.39h1.58a2.25,2.25,0,0,1,1.51.39,1.63,1.63,0,0,1,.39,1.2v1.51h-2v-1c0-.17-.08-.25-.24-.25h-.93c-.16,0-.23.08-.23.25v.89c0,.21.44.54,1.33,1A8.08,8.08,0,0,1,31.25,130a1.78,1.78,0,0,1,.38,1.27v1.48a1.72,1.72,0,0,1-.38,1.21,2.23,2.23,0,0,1-1.52.38H28a2.2,2.2,0,0,1-1.51-.38,1.68,1.68,0,0,1-.39-1.21v-1.51h2v1.06a.21.21,0,0,0,.24.24h.93a.21.21,0,0,0,.24-.24v-.9c0-.17-.43-.48-1.3-.94A8.75,8.75,0,0,1,26.57,129.41Z"/><path class="cls-2" d="M40,126.59a1.68,1.68,0,0,1,.38-1.2A2.3,2.3,0,0,1,41.9,125h1.71a2.3,2.3,0,0,1,1.52.39,1.68,1.68,0,0,1,.38,1.2v6.17a1.72,1.72,0,0,1-.38,1.21,2.25,2.25,0,0,1-1.52.38H41.9a2.25,2.25,0,0,1-1.52-.38,1.72,1.72,0,0,1-.38-1.21Zm2.08,5.72a.21.21,0,0,0,.24.24h.87a.21.21,0,0,0,.24-.24v-5.26c0-.17-.08-.25-.24-.25h-.87c-.16,0-.24.08-.24.25Z"/><path class="cls-2" d="M54.2,125h2.08v7.55h2.36v1.8H54.2Z"/><path class="cls-2" d="M69.9,125H72v7.76a1.72,1.72,0,0,1-.38,1.21,2.25,2.25,0,0,1-1.52.38H68.38a2.25,2.25,0,0,1-1.52-.38,1.72,1.72,0,0,1-.38-1.21V125h2.08v7.31a.21.21,0,0,0,.24.24h.86a.21.21,0,0,0,.24-.24Z"/><path class="cls-2" d="M82.86,134.35H82.5A2.23,2.23,0,0,1,81,134a1.72,1.72,0,0,1-.38-1.21v-6.17a1.68,1.68,0,0,1,.38-1.2A2.28,2.28,0,0,1,82.5,125h1.58a2.25,2.25,0,0,1,1.51.39,1.63,1.63,0,0,1,.39,1.2v2H84v-1.51c0-.17-.08-.25-.24-.25h-.86c-.16,0-.24.08-.24.25v5.26a.21.21,0,0,0,.24.24h.86a.21.21,0,0,0,.24-.24V130.8h2v2a1.68,1.68,0,0,1-.39,1.21,2.2,2.2,0,0,1-1.51.38h-.24l-.12.43h.38a1.18,1.18,0,0,1,.91.27.81.81,0,0,1,.23.55v.55a.81.81,0,0,1-.23.55,1.18,1.18,0,0,1-.91.27H82.25v-.89h1.6c.1,0,.14,0,.14-.08v-.25c0-.05,0-.08-.14-.08H82.57Z"/><path class="cls-2" d="M94.35,126.59a1.63,1.63,0,0,1,.39-1.2,2.26,2.26,0,0,1,1.52-.39H98a2.28,2.28,0,0,1,1.52.39,1.68,1.68,0,0,1,.38,1.2v6.17a1.72,1.72,0,0,1-.38,1.21,2.23,2.23,0,0,1-1.52.38h-1.7a2.21,2.21,0,0,1-1.52-.38,1.68,1.68,0,0,1-.39-1.21Zm2.09-1.86a1.5,1.5,0,0,1-.35,0,.69.69,0,0,1-.42-.11,1.17,1.17,0,0,1-.43-.77l-.09-.38.87-.18,0,.15a.11.11,0,0,0,.12.11h.06l1.54-.31a1.47,1.47,0,0,1,.34,0,.77.77,0,0,1,.42.11,1.19,1.19,0,0,1,.43.77l.1.39-.88.17,0-.14c0-.08-.06-.12-.13-.12H98Zm0,7.58c0,.16.07.24.23.24h.87a.21.21,0,0,0,.24-.24v-5.26c0-.17-.08-.25-.24-.25h-.87c-.16,0-.23.08-.23.25Z"/><path class="cls-2" d="M113.23,125v1.8h-2.59v2h2.23v1.8h-2.23v2h2.59v1.8h-4.68v-1.8h0V125Z"/><path class="cls-2" d="M121.89,129.41a1.8,1.8,0,0,1-.38-1.27v-1.55a1.68,1.68,0,0,1,.38-1.2,2.3,2.3,0,0,1,1.52-.39H125a2.25,2.25,0,0,1,1.51.39,1.63,1.63,0,0,1,.39,1.2v1.51h-2v-1c0-.17-.07-.25-.24-.25h-.93c-.15,0-.23.08-.23.25v.89c0,.21.44.54,1.33,1a8.08,8.08,0,0,1,1.71,1.07,1.74,1.74,0,0,1,.38,1.27v1.48a1.67,1.67,0,0,1-.38,1.21,2.23,2.23,0,0,1-1.52.38h-1.7a2.21,2.21,0,0,1-1.52-.38,1.67,1.67,0,0,1-.38-1.21v-1.51h2v1.06a.21.21,0,0,0,.24.24h.94a.21.21,0,0,0,.23-.24v-.9c0-.17-.43-.48-1.3-.94A8.75,8.75,0,0,1,121.89,129.41Z"/><path class="cls-2" d="M145.94,125H148v9.35h-2.09Z"/><path class="cls-2" d="M160.32,134.35l-1.68-6.45v6.45h-2V125h2.8l1.72,6.67,1.72-6.67h2.8v9.35h-1.95V127.9l-1.62,6.45Z"/><path class="cls-2" d="M174.24,126.59a1.68,1.68,0,0,1,.38-1.2,2.3,2.3,0,0,1,1.52-.39h1.71a2.25,2.25,0,0,1,1.51.39,1.63,1.63,0,0,1,.39,1.2v6.17a1.68,1.68,0,0,1-.39,1.21,2.2,2.2,0,0,1-1.51.38h-1.71a2.25,2.25,0,0,1-1.52-.38,1.72,1.72,0,0,1-.38-1.21Zm2.08,5.72a.21.21,0,0,0,.24.24h.86c.17,0,.24-.08.24-.24v-5.26c0-.17-.07-.25-.24-.25h-.86c-.16,0-.24.08-.24.25Z"/><path class="cls-2" d="M188.44,134.35V125H192a2.3,2.3,0,0,1,1.52.39,1.68,1.68,0,0,1,.38,1.2v1.74a1.28,1.28,0,0,1-.71,1.21c-.12.05-.18.1-.19.14s.07.08.19.14A1.27,1.27,0,0,1,194,131v1.74a1.68,1.68,0,0,1-.39,1.21,2.2,2.2,0,0,1-1.51.38Zm2.08-5.58h1.1a.21.21,0,0,0,.24-.24v-1.48c0-.17-.08-.25-.24-.25h-1.1Zm0,3.78h1.1a.21.21,0,0,0,.24-.24v-1.48c0-.17-.08-.25-.24-.25h-1.1Z"/><path class="cls-2" d="M202.52,125h2.09v9.35h-2.09Z"/><path class="cls-2" d="M213.24,125h2.08v7.55h2.36v1.8h-4.44Z"/><path class="cls-2" d="M225.57,125h2.08v9.35h-2.08Z"/><path class="cls-2" d="M237.49,125h3.31l1.7,9.35h-2.09l-.3-1.77h-1.93l-.3,1.77h-2.09Zm2.39-.23H238.2l.36-1.56H241Zm-.73,1.82-.65,4.21h1.29Z"/><path class="cls-2" d="M252.62,131.1v3.25h-2.08V125h3.54a2.28,2.28,0,0,1,1.52.39,1.68,1.68,0,0,1,.38,1.2v2.26a1.28,1.28,0,0,1-.71,1.21c-.12.05-.18.1-.19.14s.07.09.19.14a1.27,1.27,0,0,1,.78,1.2v2.81H254v-3c0-.17-.08-.25-.24-.25Zm0-4.3v2.5h1.1a.22.22,0,0,0,.24-.25v-2c0-.17-.08-.25-.24-.25Z"/><path class="cls-2" d="M264.63,125h2.09v9.35h-2.09Z"/><path class="cls-2" d="M276.55,125h3.31l1.7,9.35h-2.09l-.3-1.77h-1.92l-.31,1.77h-2.09Zm1.66,1.59-.65,4.21h1.29Z"/><path class="cls-2" d="M289.93,129.41a1.8,1.8,0,0,1-.38-1.27v-1.55a1.68,1.68,0,0,1,.38-1.2,2.28,2.28,0,0,1,1.52-.39H293a2.25,2.25,0,0,1,1.51.39,1.63,1.63,0,0,1,.39,1.2v1.51h-2v-1c0-.17-.08-.25-.24-.25h-.93c-.16,0-.23.08-.23.25v.89c0,.21.44.54,1.32,1a8,8,0,0,1,1.72,1.07,1.78,1.78,0,0,1,.38,1.27v1.48a1.72,1.72,0,0,1-.38,1.21,2.23,2.23,0,0,1-1.52.38h-1.71a2.2,2.2,0,0,1-1.51-.38,1.68,1.68,0,0,1-.39-1.21v-1.51h2v1.06a.21.21,0,0,0,.24.24h.93a.21.21,0,0,0,.24-.24v-.9c0-.17-.43-.48-1.3-.94A8.75,8.75,0,0,1,289.93,129.41Z"/></g></g></svg>