<svg xmlns="http://www.w3.org/2000/svg" viewBox="0 0 474.5 375.94"><defs><style>.cls-1{fill:#1d1d1b;}</style></defs><g id="Camada_2" data-name="Camada 2"><g id="Camada_1-2" data-name="Camada 1"><path class="cls-1" d="M278.59,107.57c-2.82-1.59-21.78-15.39-22.06-15.48-2.26-.77-4.52-1.53-6.79-2.24q-6.13-1.92-12.28-3.76c-.75-.23-1.52-.37-2.29-.55l-1.49-.44c-3.13-1.07-18-6.21-24-8.21L208,76.21a1.56,1.56,0,0,0-.73-.07,3.09,3.09,0,0,0-.53.09l-1.39.39-4.07,1.17c-3.08.88-20.84,4.73-21.42,4.89-2.88.76-5.75,1.68-8.63,2.35-2.61.61-5.23,1-7.85,1.46a22.24,22.24,0,0,0-8,3.47c-2.65,1.76-5.22,3.68-7.82,5.53-1.21.86-13.06,7.44-14.3,8.27-4.82,2.7-9,5-9.08,5.12-1.65,1.72-3.3,3.44-4.92,5.2l-.3.34c-4.34,3.8-9,8.23-10.54,9.38-4,3.08-8.09,5.89-12.14,8.85a2.48,2.48,0,0,0-.71,1.11c-.66,1.82-1.27,3.66-1.9,5.5-.24.69-.78,2.07-1.47,3.81-.45,1.13-1,2.43-1.52,3.78-2.4,5.93-5.34,13-5.48,13.41-1,2.87-2,5.81-3.09,8.64-1,2.56-2.27,5-3.37,7.53a23,23,0,0,0-1.8,8.64c-.08,3.16,0,6.33,0,9.49s-2.62,26.56-2.56,26.84c.46,2.27.93,4.54,1.45,6.8.25,1.09.5,2.18.76,3.26,0,.26,0,.52,0,.78.08,2.13,2.49,12.76,3.14,14.79,1.87,5.86,6.33,7.9,9.92,7.9,0,0-6.19-22.67-4.59-36.36.58-5,1-28,1.52-33,1.63-16,12.14-25.82,18.43-40.62,6.41-15.11,26.33-22.7,39.63-30.23,7.1-4,14.11-8.69,21.49-12.13a163,163,0,0,1,20.56-7.5c4.66-1.45,11.93-5.36,16.87-5,1.46.09,2.92.2,4.38.3,1.3.09,34.86,7.87,37.86,8l33.5,19s2-8.25-.75-9.82"/><path class="cls-1" d="M81,108.62,66.2,124.1c-.21-.32-.52-.69-.76-1.12-2.37-4.26-4.7-8.56-7.1-12.79-2.21-3.9-4.53-7.72-6.72-11.64-.87-1.57-1.5-3.35-2.29-5-.69-1.47-1.48-2.86-2.15-4.35a41.61,41.61,0,0,1-1.57-4.27A279.89,279.89,0,0,1,81,108.62"/><path class="cls-1" d="M242.48,62.36l-20.24-6.94c.22-.39.47-.91.79-1.39,3.2-4.75,6.44-9.48,9.6-14.26,2.91-4.39,5.7-8.85,8.64-13.23,1.18-1.76,2.64-3.37,3.93-5.08,1.15-1.51,2.19-3.08,3.37-4.57a51.64,51.64,0,0,1,3.5-3.94,390,390,0,0,1-9.59,49.41"/><path class="cls-1" d="M121.69,28.78a5.58,5.58,0,0,0-1,1.81c-3.12,9.29-4.37,18.42-5.88,27.57-.38,2.34-.82,4.69-1.26,7-.71,3.78-1.46,7.56-2.17,11.34-.25,1.35-.38,2.68-.69,4-.59,2.56-1.26,5.12-2,8,3.16-1.5,6-2.84,8.77-4.15,4.24-2,8.52-3.85,12.73-5.88,2.84-1.38,5.5-3.15,8.8-3.43a3.62,3.62,0,0,0-.07-.93c-1.23-3.54-2.44-7.1-3.75-10.61Q132,54.83,128.7,46.19c-2.08-5.39-4.24-10.74-6.37-16.11-.18-.45-.42-.87-.64-1.3"/><path class="cls-1" d="M54.4,149.49c-6,.28-12,.51-18,.87s-12.1.92-18.14,1.27c-4.46.25-8.89.23-13.34.46A42.9,42.9,0,0,0,0,152.9c.22.5,8,2.59,11.56,3.48s41.21,13.9,42.14,14c.67-4.88.61-16.09,1.26-20.87a4.58,4.58,0,0,0-.56,0"/><path class="cls-1" d="M192.18,47.7q-3.37-8.54-6.83-17c-3.28-8-6.6-16-9.87-24.06-.89-2.18-1.7-4.42-2.55-6.64a4.78,4.78,0,0,0-.36,2c.29,6.5.61,13,.92,19.49.29,6,.77,12,.82,18a106.72,106.72,0,0,0,2.12,18.73l16.47-7.61a22.23,22.23,0,0,0-.72-2.87"/><path class="cls-1" d="M10.2,223.7c2.21-.66,4.41-1.38,6.65-2,7.71-2.07,15.45-4,23.14-6.16,2.37-.65,4.63-1.66,6.94-2.49a12.33,12.33,0,0,1,1.37-.29c3.05-.61,3.52-.48,4.51,2.4.89,2.56,1.46,5.23,2.12,7.87.2.83-.71,1.62-1.77,1.6-4-.06-8-.15-12-.18-5.81,0-11.62,0-17.43-.06-4.49-.06-9-.26-13.46-.39,0-.11-.07-.21-.1-.32"/><polygon class="cls-1" points="192.29 375.24 192.29 347.67 204.64 347.67 204.64 351.8 196.77 351.8 196.77 359.12 204.06 359.12 204.06 362.93 196.77 362.93 196.77 371.07 205.03 371.07 205.03 375.24 192.29 375.24"/><path class="cls-1" d="M224.05,374.93a9.11,9.11,0,0,1-8.49-.08,9.56,9.56,0,0,1-3.19-3,15.2,15.2,0,0,1-2-4.57,23.84,23.84,0,0,1,0-11.63,14.88,14.88,0,0,1,2-4.59,9.54,9.54,0,0,1,3.21-3,8.3,8.3,0,0,1,4.19-1.07,9.47,9.47,0,0,1,4.17.87,7.62,7.62,0,0,1,2.92,2.51l-2.69,3.28a4.82,4.82,0,0,0-4.13-2.3,3.9,3.9,0,0,0-2.45.8,6.12,6.12,0,0,0-1.75,2.16,12,12,0,0,0-1.06,3.21,22.3,22.3,0,0,0,0,7.87,12,12,0,0,0,1.06,3.21,6,6,0,0,0,1.77,2.16,4,4,0,0,0,2.51.8,4,4,0,0,0,2.36-.7,6.39,6.39,0,0,0,1.65-1.71l2.69,3.15a8.72,8.72,0,0,1-2.79,2.65"/><path class="cls-1" d="M249.89,361.41a23.65,23.65,0,0,1-.68,5.94,14.63,14.63,0,0,1-2,4.58,9.41,9.41,0,0,1-3.14,3,8.75,8.75,0,0,1-8.31,0,9.44,9.44,0,0,1-3.12-3,14.64,14.64,0,0,1-2-4.58,24.12,24.12,0,0,1-.68-5.94,24.54,24.54,0,0,1,.66-5.92,14.41,14.41,0,0,1,1.95-4.55,9.15,9.15,0,0,1,3.14-2.94,8.94,8.94,0,0,1,8.33,0,9.24,9.24,0,0,1,3.14,2.94,14.66,14.66,0,0,1,2,4.55,23.54,23.54,0,0,1,.68,5.92m-4.82,0a22.52,22.52,0,0,0-.34-4,12.37,12.37,0,0,0-1-3.19,6,6,0,0,0-1.6-2.12,3.37,3.37,0,0,0-2.2-.78,3.45,3.45,0,0,0-2.24.78,6.09,6.09,0,0,0-1.59,2.12,12,12,0,0,0-1,3.19,25.38,25.38,0,0,0,0,7.91,12.39,12.39,0,0,0,1,3.21,6.08,6.08,0,0,0,1.59,2.14,3.45,3.45,0,0,0,2.24.78,3.41,3.41,0,0,0,2.24-.78,6,6,0,0,0,1.6-2.14,12,12,0,0,0,.95-3.21,23.53,23.53,0,0,0,.32-4"/><path class="cls-1" d="M276.38,375.24l-4.29-11.76h-2.61v11.76H265V347.67h7.86a10.54,10.54,0,0,1,3.16.45,6.14,6.14,0,0,1,2.47,1.42,6.65,6.65,0,0,1,1.62,2.45,9.65,9.65,0,0,1,.58,3.54,8.74,8.74,0,0,1-.41,2.83,7.35,7.35,0,0,1-1,2.08,5.83,5.83,0,0,1-1.38,1.38,4.89,4.89,0,0,1-1.5.72l4.94,12.7Zm-.31-19.47a5.39,5.39,0,0,0-.35-2.07,3.38,3.38,0,0,0-.92-1.28,3.43,3.43,0,0,0-1.27-.66,5.15,5.15,0,0,0-1.4-.2h-2.65v8.49h2.65A3.89,3.89,0,0,0,275,359a4.25,4.25,0,0,0,1.11-3.21"/><polygon class="cls-1" points="286.5 375.24 286.5 347.67 298.85 347.67 298.85 351.8 290.98 351.8 290.98 359.12 298.26 359.12 298.26 362.93 290.98 362.93 290.98 371.07 299.24 371.07 299.24 375.24 286.5 375.24"/><path class="cls-1" d="M315.87,353a4.76,4.76,0,0,0-3.82-1.83,3.71,3.71,0,0,0-1.28.22,3.05,3.05,0,0,0-1.13.68,3.09,3.09,0,0,0-.8,1.21,4.62,4.62,0,0,0-.29,1.75,3.44,3.44,0,0,0,1.05,2.7,12.45,12.45,0,0,0,2.76,1.82,21.78,21.78,0,0,1,2.07,1.16,10,10,0,0,1,1.91,1.6,7.43,7.43,0,0,1,1.94,5.26,9.3,9.3,0,0,1-.64,3.58,8,8,0,0,1-1.71,2.63,7.13,7.13,0,0,1-2.52,1.62,8.56,8.56,0,0,1-3,.54,10.14,10.14,0,0,1-4.25-.89,8.85,8.85,0,0,1-3.11-2.26l2.53-3.43a6.21,6.21,0,0,0,2.16,1.71,5.75,5.75,0,0,0,2.59.63,3.24,3.24,0,0,0,2.45-1,3.92,3.92,0,0,0,1-2.84,3.63,3.63,0,0,0-1.17-2.84,13.56,13.56,0,0,0-3-1.95,15.57,15.57,0,0,1-2.12-1.21,8,8,0,0,1-1.76-1.57,7.12,7.12,0,0,1-1.2-2.15,8.49,8.49,0,0,1-.45-2.94,9,9,0,0,1,.68-3.68,7.55,7.55,0,0,1,1.79-2.55,7.39,7.39,0,0,1,2.51-1.5,8.75,8.75,0,0,1,2.85-.48,9.64,9.64,0,0,1,3.75.68,7.13,7.13,0,0,1,2.79,2Z"/><rect class="cls-1" x="324.09" y="347.67" width="4.67" height="27.57"/><path class="cls-1" d="M353.65,361.49q0,6.56-2.75,10.15t-8.08,3.6h-6.9V347.67h6.94q5.29,0,8,3.64t2.75,10.18m-4.68,0a18.08,18.08,0,0,0-.45-4.28,9.34,9.34,0,0,0-1.26-3,5.57,5.57,0,0,0-1.95-1.81,5.13,5.13,0,0,0-2.45-.6h-2.22v19.39h2.22a5.13,5.13,0,0,0,2.45-.6,5.57,5.57,0,0,0,1.95-1.81,9.31,9.31,0,0,0,1.26-3,17.7,17.7,0,0,0,.45-4.23"/><path class="cls-1" d="M368.41,345.49l-2.69-3.63-2.65,3.63H359.6l4.29-5.61h3.78l4.24,5.61Zm-8.77,29.75V347.67H372v4.12h-7.87v7.33h7.28v3.81h-7.28v8.14h8.26v4.17Z"/><polygon class="cls-1" points="390.25 375.24 382.43 355.77 382.31 355.77 382.39 375.24 378.18 375.24 378.18 347.67 383.52 347.67 391.27 367.26 391.38 367.26 391.35 347.67 395.39 347.67 395.39 375.24 390.25 375.24"/><path class="cls-1" d="M415.78,374.93a9.11,9.11,0,0,1-8.49-.08,9.56,9.56,0,0,1-3.19-3,15.2,15.2,0,0,1-2-4.57,23.84,23.84,0,0,1,0-11.63,14.88,14.88,0,0,1,2.05-4.59,9.54,9.54,0,0,1,3.21-3,8.3,8.3,0,0,1,4.19-1.07,9.47,9.47,0,0,1,4.17.87,7.62,7.62,0,0,1,2.92,2.51l-2.69,3.28a4.83,4.83,0,0,0-4.13-2.3,3.9,3.9,0,0,0-2.45.8,6.25,6.25,0,0,0-1.76,2.16,12.35,12.35,0,0,0-1.05,3.21,22.3,22.3,0,0,0,0,7.87,12.35,12.35,0,0,0,1.05,3.21,6.08,6.08,0,0,0,1.78,2.16,4,4,0,0,0,2.51.8,4,4,0,0,0,2.36-.7,6.39,6.39,0,0,0,1.65-1.71l2.69,3.15a8.72,8.72,0,0,1-2.79,2.65"/><rect class="cls-1" x="423.44" y="347.67" width="4.67" height="27.57"/><path class="cls-1" d="M447.23,375.24l-1.36-5.84h-7.25l-1.4,5.84h-4.67l6.85-27.57h6l6.74,27.57Zm-4.87-23.17h-.15l-3,13.67h6.07Z"/><path class="cls-1" d="M322.27,300.78,314.62,177.7h-.24c-.47-3-3.47-7.43-12.95-7.43H274.28c-16.14,0-15.22,17.62-15.22,20.14V305.49h15.6V249.77H302.9V305Zm-22.38-110s1.7,32.15,1.67,34.81c-.05,4.59-1.09,11.54-6.39,11.54H274.66V195s-.46-12.55,7.55-12.55c10.89,0,18.23-.42,17.68,8.31"/><polygon class="cls-1" points="360.11 167.41 360.11 305.49 377.94 305.49 377.94 174.34 360.11 167.41"/><path class="cls-1" d="M223.4,289.77l-.56-.12-.26.12-30.69.14c-2.73,0-3.78-.88-4.24-1.34-3-3.07-4.37-10.86-4.37-13.59V202.19c0-11.56,1.24-16.47,1.95-18.38,1.35-.31,26.42-.6,29.32-.6l5.11-15.91H200.27s-19.56-1.71-25.73,4.74c-5.44,5.68-6.12,17.54-6.12,30.15v72.66s0,30.67,24.1,30.67l30.88-.14V289.77Z"/><path class="cls-1" d="M453.44,237.13H436.5a18.41,18.41,0,0,1-6.95-14.67s-.05-.57-.05-.75l-2.3-30.81c-.39-6.2,22.06-8.08,34.69-8.57v-15H425.43c-10.64,0-13.37,5.85-13.45,11.77s2.91,50.26,3.57,53.11c0,0,2.33,20.57,17.49,20.57h16.89a11.13,11.13,0,0,1,5.74,6.41c1.46,3.91,3.76,18.55,3.76,18.55,1.8,11-31.82,10.7-31.82,10.7h-9.55v17.09h43c10.63,0,13.37-5.93,13.45-11.85s-2.91-33.85-3.57-36.71c0,0-2.33-19.8-17.49-19.8"/></g></g></svg>