<svg xmlns="http://www.w3.org/2000/svg" width="1920" height="78.03" viewBox="0 0 1920 78.03">
  <defs>
    <style>
      .cls-1 {
        fill: #e65b24;
        fill-rule: evenodd;
      }
    </style>
  </defs>
  <path id="Forma_1" data-name="Forma 1" class="cls-1" d="M-98.051,1376.76c25.212,2.64,119.445,1.44,119.445,1.44s84.014,8.97,99.232,3.03,109.35-5.63,130.471-5.78,103.439,7.89,121.283,3.3,71.06-3.11,84.53-2.65,65.405-.74,80.856.97,108.419,3.15,108.419,3.15,84.344-5.68,102.907-2.44,63.09,4.87,77.18,4.61,130.472-3.94,130.472-3.94,81.456-3.36,95.556-.69,117.61-.42,117.61-0.42l93.72-4.38s48.25,12.8,64.31,11.8,93.35-8.28,117.61-5.93,68.42,1.63,88.21,1.06,61.96,7.45,86.37,4.72,136.27-16.95,152.52-16.54,91.88,2.95,91.88,2.95,58.23,3.22,73.5,2.72,91.88,2.94,91.88,2.94v60.65l-79.01-2.79s-44.13-4.86-60.64-2.57-45.65,2.12-73.51-.89-59.14,4.93-77.18,4.58-86.37-1.04-86.37-1.04-28.91,1.35-49.61,3.08-67.52,5.92-86.37,6.31-86.66.54-101.07,0.62-123.12-5.16-123.12-5.16-60.34-4.34-83.03-.47-48.84-1.43-73.17.42-61.28,8.56-79.83,5.58-66.975-5.65-85.555-3.9-62.48,4.76-62.48,4.76-28.18-.58-63.965-0.86-68.343,1.11-68.343,1.11L709,1445s-21.339-7.63-72-2-39.133-2.06-73.508-1.3-47.046,1.25-71.667-.87-63.276-4.34-79.018-4.62-66.428.72-93.718,0.7-110.258-6.84-110.258-6.84l-93.718.71a663.423,663.423,0,0,1-69.83,6.51c-37.755,1.43-29.013,1.39-62.479-.76s-86.368.8-86.368,0.8S-123.263,1374.11-98.051,1376.76Z" transform="translate(0 -1368.06)"/>
</svg>
