<svg xmlns="http://www.w3.org/2000/svg" width="1920" height="78" viewBox="0 0 1920 78">
  <defs>
    <style>
      .cls-1 {
        fill: #b13124;
        fill-rule: evenodd;
      }
    </style>
  </defs>
  <path id="Forma_1_copiar" data-name="Forma 1 copiar" class="cls-1" d="M-98.175,2715.31c25.214-2.65,119.458-1.44,119.458-1.44s84.023-8.97,99.242-3.03,109.362,5.63,130.485,5.77,103.45-7.88,121.295-3.3,71.068,3.12,84.539,2.66,65.412,0.73,80.864-.98,108.431-3.14,108.431-3.14,84.352,5.68,102.917,2.44,63.1-4.87,77.188-4.61,130.485,3.94,130.485,3.94,81.462,3.36,95.562.68,117.62,0.42,117.62.42l93.73,4.39s48.26-12.8,64.33-11.8,93.35,8.27,117.62,5.93,68.42-1.63,88.21-1.06,61.97-7.45,86.38-4.72,136.28,16.94,152.54,16.53,91.89-2.94,91.89-2.94,58.23-3.22,73.51-2.72,91.89-2.95,91.89-2.95v-60.62l-79.03,2.79s-44.13,4.85-60.64,2.57-45.66-2.12-73.52.89-59.15-4.93-77.19-4.58-86.37,1.04-86.37,1.04-28.92-1.35-49.62-3.08-67.53-5.92-86.38-6.31-86.67-.54-101.08-0.61-123.13,5.15-123.13,5.15-60.35,4.34-83.04.47-48.85,1.43-73.18-.42-61.28-8.56-79.84-5.58-66.977,5.65-85.56,3.9-62.485-4.76-62.485-4.76-28.184.58-63.972,0.86-68.351-1.1-68.351-1.1l-67.663,1.1s-21.341,7.63-72.008,2-39.137,2.06-73.515,1.3-47.051-1.24-71.674.87-63.283,4.34-79.026,4.62-66.436-.72-93.728-0.7-110.269,6.84-110.269,6.84l-93.728-.71a663.553,663.553,0,0,0-69.837-6.51c-37.759-1.43-29.016-1.39-62.486.76s-86.377-.8-86.377-0.8S-123.389,2717.96-98.175,2715.31Z" transform="translate(0 -2646)"/>
</svg>
