<svg xmlns="http://www.w3.org/2000/svg" width="1920" height="78" viewBox="0 0 1920 78">
  <defs>
    <style>
      .cls-1 {
        fill: #ea951f;
        fill-rule: evenodd;
      }
    </style>
  </defs>
  <path id="Forma_1_copiar" data-name="Forma 1 copiar" class="cls-1" d="M2017.18,3296.31c-25.22-2.65-119.46-1.44-119.46-1.44s-84.03-8.97-99.24-3.03-109.37,5.63-130.49,5.77-103.45-7.88-121.29-3.3-71.07,3.12-84.54,2.66-65.41.73-80.87-.98-108.43-3.14-108.43-3.14-84.35,5.68-102.92,2.44-63.09-4.87-77.18-4.61-130.488,3.94-130.488,3.94-81.46,3.36-95.566.68-117.62.42-117.62,0.42l-93.728,4.39s-48.262-12.8-64.323-11.8-93.356,8.27-117.62,5.93-68.426-1.63-88.215-1.06-61.974-7.45-86.377-4.72-136.285,16.94-152.538,16.53-91.891-2.94-91.891-2.94-58.238-3.22-73.512-2.72-91.891-2.95-91.891-2.95v-60.62l79.026,2.79s44.129,4.85,60.648,2.57,45.652-2.12,73.512.89,59.15-4.93,77.188-4.58,86.377,1.04,86.377,1.04,28.917-1.35,49.621-3.08,67.526-5.92,86.377-6.31,86.668-.54,101.08-0.61,123.133,5.15,123.133,5.15,60.347,4.34,83.037.47,48.848,1.43,73.177-.42,61.286-8.56,79.839-5.58,66.981,5.65,85.564,3.9,62.49-4.76,62.49-4.76,28.18,0.58,63.97.86,68.35-1.1,68.35-1.1l67.66,1.1s21.34,7.63,72.01,2,39.14,2.06,73.51,1.3,47.05-1.24,71.68.87,63.28,4.34,79.02,4.62,66.44-.72,93.73-0.7,110.27,6.84,110.27,6.84l93.73-.71a663.621,663.621,0,0,1,69.84-6.51c37.75-1.43,29.01-1.39,62.48.76s86.38-.8,86.38-0.8S2042.39,3298.96,2017.18,3296.31Z" transform="translate(0 -3227)"/>
</svg>
